<svg xmlns="http://www.w3.org/2000/svg" viewBox="0 0 475.49 562.69"><title>inscripcion_3</title><g id="a4dd0b99-3a9b-4e9b-ab15-0ba04203969e" data-name="Capa 2"><g id="bf376807-908c-4fd9-998a-626fba1bc0a7" data-name="Capa 1"><rect x="12.5" y="12.5" width="414" height="405" rx="25" fill="none" stroke="#fff" stroke-miterlimit="10" stroke-width="25"/><path d="M449.17,437.18c21.36,35.29,17.54,81.41-8.48,102.49s-64.79,9.46-86.15-25.83L252.83,345.78c-21.36-35.3-17.54-81.42,8.48-102.5s64.79-9.45,86.15,25.84Z" fill="#fff"/><path d="M449.17,437.18c21.36,35.29,17.54,81.41-8.48,102.49s-64.79,9.46-86.15-25.83L252.83,345.78c-21.36-35.3-17.54-81.42,8.48-102.5s64.79-9.45,86.15,25.84Z" fill="none" stroke="#fff" stroke-linecap="round" stroke-miterlimit="10" stroke-width="25"/><path d="M229.85,199c-.39-5.49,3.24-7.82,8.07-5.18l83.28,45.6c4.83,2.64,5.26,7.61,1,11l-76.12,60.93c-4.3,3.44-8.13,1.76-8.52-3.73Z" fill="#fff"/><path d="M229.85,199c-.39-5.49,3.24-7.82,8.07-5.18l83.28,45.6c4.83,2.64,5.26,7.61,1,11l-76.12,60.93c-4.3,3.44-8.13,1.76-8.52-3.73Z" fill="none" stroke="#fff" stroke-linecap="round" stroke-miterlimit="10" stroke-width="25"/><line x1="70.5" y1="68.5" x2="380.5" y2="67.5" fill="none" stroke="#fff" stroke-linecap="round" stroke-miterlimit="10" stroke-width="25"/><line x1="69.5" y1="125.5" x2="379.5" y2="124.5" fill="none" stroke="#fff" stroke-linecap="round" stroke-miterlimit="10" stroke-width="25"/><line x1="72.5" y1="186.5" x2="188.5" y2="185.5" fill="none" stroke="#fff" stroke-linecap="round" stroke-miterlimit="10" stroke-width="25"/></g></g></svg>